{
	"asset":{
		"generator":"Khronos glTF Blender I/O v4.4.56",
		"version":"2.0"
	},
	"scene":0,
	"scenes":[
		{
			"name":"Scene",
			"nodes":[
				1
			]
		}
	],
	"nodes":[
		{
			"mesh":0,
			"name":"fluff",
			"scale":[
				1.000428557395935,
				1.000428557395935,
				1.000428557395935
			],
			"translation":[
				1.1508228778839111,
				-0.20782722532749176,
				-0.02269004099071026
			]
		},
		{
			"children":[
				0
			],
			"mesh":1,
			"name":"canister",
			"scale":[
				0.026988433673977852,
				0.026988433673977852,
				0.026988433673977852
			]
		}
	],
	"materials":[
		{
			"doubleSided":true,
			"name":"fluff",
			"pbrMetallicRoughness":{
				"baseColorFactor":[
					0,
					0,
					0,
					1
				],
				"metallicFactor":0,
				"roughnessFactor":0.6818181872367859
			}
		},
		{
			"doubleSided":true,
			"name":"main",
			"pbrMetallicRoughness":{
				"baseColorTexture":{
					"index":0
				},
				"metallicRoughnessTexture":{
					"index":1
				},
				"roughnessFactor":0.135294109582901
			}
		},
		{
			"doubleSided":true,
			"name":"plastic",
			"pbrMetallicRoughness":{
				"baseColorFactor":[
					0,
					0,
					0,
					1
				],
				"metallicFactor":0,
				"roughnessFactor":0.22794117033481598
			}
		}
	],
	"meshes":[
		{
			"name":"Cylinder.002",
			"primitives":[
				{
					"attributes":{
						"POSITION":0,
						"NORMAL":1,
						"TEXCOORD_0":2
					},
					"indices":3,
					"material":0
				}
			]
		},
		{
			"name":"Cylinder",
			"primitives":[
				{
					"attributes":{
						"POSITION":4,
						"NORMAL":5,
						"TEXCOORD_0":6
					},
					"indices":7,
					"material":1
				},
				{
					"attributes":{
						"POSITION":8,
						"NORMAL":9,
						"TEXCOORD_0":10
					},
					"indices":11,
					"material":2
				}
			]
		}
	],
	"textures":[
		{
			"sampler":0,
			"source":0
		},
		{
			"sampler":0,
			"source":1
		}
	],
	"images":[
		{
			"mimeType":"image/jpeg",
			"name":"color",
			"uri":"color.jpg"
		},
		{
			"mimeType":"image/jpeg",
			"name":"metallic",
			"uri":"metallic.jpg"
		}
	],
	"accessors":[
		{
			"bufferView":0,
			"componentType":5126,
			"count":38,
			"max":[
				-1.4247157573699951,
				0.8539198040962219,
				0.36647894978523254
			],
			"min":[
				-1.6585150957107544,
				-0.6161684989929199,
				0.22703127562999725
			],
			"type":"VEC3"
		},
		{
			"bufferView":1,
			"componentType":5126,
			"count":38,
			"type":"VEC3"
		},
		{
			"bufferView":2,
			"componentType":5126,
			"count":38,
			"type":"VEC2"
		},
		{
			"bufferView":3,
			"componentType":5123,
			"count":204,
			"type":"SCALAR"
		},
		{
			"bufferView":4,
			"componentType":5126,
			"count":242,
			"max":[
				0.4373801648616791,
				0.5875869989395142,
				0.4345376491546631
			],
			"min":[
				-0.49352413415908813,
				-0.7475420832633972,
				-0.4373801350593567
			],
			"type":"VEC3"
		},
		{
			"bufferView":5,
			"componentType":5126,
			"count":242,
			"type":"VEC3"
		},
		{
			"bufferView":6,
			"componentType":5126,
			"count":242,
			"type":"VEC2"
		},
		{
			"bufferView":7,
			"componentType":5123,
			"count":1056,
			"type":"SCALAR"
		},
		{
			"bufferView":8,
			"componentType":5126,
			"count":4895,
			"max":[
				0.44802772998809814,
				0.8454104661941528,
				0.44802767038345337
			],
			"min":[
				-0.49352413415908813,
				-0.8454104661941528,
				-0.448027640581131
			],
			"type":"VEC3"
		},
		{
			"bufferView":9,
			"componentType":5126,
			"count":4895,
			"type":"VEC3"
		},
		{
			"bufferView":10,
			"componentType":5126,
			"count":4895,
			"type":"VEC2"
		},
		{
			"bufferView":11,
			"componentType":5123,
			"count":22128,
			"type":"SCALAR"
		}
	],
	"bufferViews":[
		{
			"buffer":0,
			"byteLength":456,
			"byteOffset":0,
			"target":34962
		},
		{
			"buffer":0,
			"byteLength":456,
			"byteOffset":456,
			"target":34962
		},
		{
			"buffer":0,
			"byteLength":304,
			"byteOffset":912,
			"target":34962
		},
		{
			"buffer":0,
			"byteLength":408,
			"byteOffset":1216,
			"target":34963
		},
		{
			"buffer":0,
			"byteLength":2904,
			"byteOffset":1624,
			"target":34962
		},
		{
			"buffer":0,
			"byteLength":2904,
			"byteOffset":4528,
			"target":34962
		},
		{
			"buffer":0,
			"byteLength":1936,
			"byteOffset":7432,
			"target":34962
		},
		{
			"buffer":0,
			"byteLength":2112,
			"byteOffset":9368,
			"target":34963
		},
		{
			"buffer":0,
			"byteLength":58740,
			"byteOffset":11480,
			"target":34962
		},
		{
			"buffer":0,
			"byteLength":58740,
			"byteOffset":70220,
			"target":34962
		},
		{
			"buffer":0,
			"byteLength":39160,
			"byteOffset":128960,
			"target":34962
		},
		{
			"buffer":0,
			"byteLength":44256,
			"byteOffset":168120,
			"target":34963
		}
	],
	"samplers":[
		{
			"magFilter":9729,
			"minFilter":9987
		}
	],
	"buffers":[
		{
			"byteLength":212376,
			"uri":"canister.bin"
		}
	]
}
